<?xml version="1.0" encoding="UTF-8"?>
<svg id="Layer_1" xmlns="http://www.w3.org/2000/svg" xmlns:xlink="http://www.w3.org/1999/xlink" version="1.1" viewBox="0 0 5.86 12.55">
  <!-- Generator: Adobe Illustrator 29.2.1, SVG Export Plug-In . SVG Version: 2.1.0 Build 116)  -->
  <defs>
    <style>
      .st0 {
        fill: #fff;
        stroke-width: .11px;
      }

      .st0, .st1, .st2 {
        stroke: #5ec0c9;
        stroke-linecap: round;
        stroke-miterlimit: 10;
      }

      .st1 {
        stroke-width: .06px;
      }

      .st1, .st2 {
        fill: none;
      }

      .st3 {
        fill: #5ec0c9;
      }

      .st2 {
        stroke-width: .17px;
      }
    </style>
  </defs>
  <g>
    <path class="st3" d="M1.8,10.25c-.96-.49.36-1.43-.41-2.61-1.07-1.62.91-2.8.58-3.93s1.28,1.21.01,2.2c0,0,1.05-.7.37-2.5-.37-.98.31-1.56.31-1.56,0,0-.61.85.24,2.2s-.74,2.69-.14,3.65c.6.96,1.19.41,1.16,2.25,0,0,.5-.97-.56-1.97s-.14-.84.01-3c.01-.16-.01-.33-.08-.48-.16-.36-.41-1.17.04-2.04,0,0-.03.76.47,2.2.35,1.02-.39,2.14-.39,2.14,0,0,.72-.64.65-2.34,0-.14-.04-.27-.08-.4-.05-.14-.1-.47.09-1.16,0,0,.67,2.86-.39,4.09,0,0,.93-.64.92-2.02,0-.23.04-.45.12-.66l.09-.23v1.98c0,.58-1.29,1.37-.58,2.5s.16,1.7.16,1.7H1.8Z"/>
    <path class="st0" d="M1.94,8s-.64-1.15.06-2.11"/>
  </g>
  <line class="st2" x1="2.37" y1="4.8" x2="2" y2="4.74"/>
  <line class="st1" x1="2" y1="5.22" x2="2.4" y2="5.31"/>
  <line class="st1" x1="1.67" y1="5.55" x2="1.77" y2="5.55"/>
  <line class="st1" x1="1.51" y1="6.25" x2="1.79" y2="6.28"/>
  <line class="st1" x1="2" y1="5.89" x2="2.68" y2="6.17"/>
  <line class="st1" x1="2.42" y1="5.63" x2="2.62" y2="5.72"/>
  <line class="st1" x1="3.78" y1="5.15" x2="3.48" y2="5.2"/>
  <line class="st1" x1="3.48" y1="5.87" x2="3.63" y2="5.87"/>
  <line class="st1" x1="4.46" y1="6.26" x2="4.67" y2="6.26"/>
</svg>